:FULLY-SPECIFIED
:FORCE-ALL-JOINTS-BE-3DOF
:DEGREES
849
root 3.74912 16.3838 27.9977 -8.99828 5.8674 357.563
lfemur -22.5392 1.81875 -14.7648
ltibia 35.4726 0 0
lfoot -3.25236 -16.9387 0
ltoes 6.67726 0 0
rfemur -26.6119 -4.53851 2.06994
rtibia 70.9642 0 0
rfoot 21.7444 10.6478 0
rtoes -15.6482 0 0
lowerback 3.60063 3.07485 -1.0274
upperback 0.939528 3.91631 0.394602
thorax -1.04168 1.96001 1.12452
lowerneck -6.29002 -3.54847 2.85145
upperneck 9.32254 -5.2377 1.75523
head 4.13803 -2.39839 -0.200592
lclavicle 3.10741e-14 -1.39618e-14 0
lhumerus -49.0982 -9.24284 83.2658
lradius 54.0132 0 0
lwrist 19.2506 0 0
lhand -1.33439 4.05116 0
lfingers 7.12502 0 0
lthumb 24.3184 32.5705 0
rclavicle 3.10741e-14 -1.39618e-14 0
rhumerus -40.0832 16.026 -67.5518
rradius 52.5227 0 0
rwrist 6.55307 0 0
rhand -25.5239 -25.8778 0
rfingers 7.12502 0 0
rthumb 1.00317 -775.768 0
850
root 3.76787 16.3995 28.0913 -9.62901 6.89871 357.695
lfemur -21.5956 2.03098 -15.2253
ltibia 35.3529 0 0
lfoot -3.26406 -18.2085 0
ltoes 8.39058 0 0
rfemur -29.3438 -3.98325 1.88819
rtibia 69.7416 0 0
rfoot 20.593 9.45048 0
rtoes -14.3882 0 0
lowerback 4.40661 2.6976 -1.31957
upperback 1.22187 3.38549 0.284361
thorax -1.19076 1.69533 1.18614
lowerneck -6.2884 -3.53993 2.816
upperneck 9.28648 -5.23209 1.85942
head 4.12966 -2.39259 -0.159363
lclavicle 3.08183e-14 -1.46208e-14 0
lhumerus -48.0164 -10.1115 82.9315
lradius 54.079 0 0
lwrist 19.6032 0 0
lhand -0.785447 3.98675 0
lfingers 7.12502 0 0
lthumb 24.8464 32.4485 0
rclavicle 3.08183e-14 -1.46208e-14 0
rhumerus -40.981 14.9034 -66.2608
rradius 52.1968 0 0
rwrist 6.37353 0 0
rhand -24.1125 -25.9333 0
rfingers 7.12502 0 0
rthumb 2.36547 -775.806 0
851
root 3.78663 16.4153 28.1848 -10.2529 7.94596 357.823
lfemur -20.6495 2.2557 -15.6706
ltibia 35.2083 0 0
lfoot -3.28888 -19.4439 0
ltoes 10.146 0 0
rfemur -32.1151 -3.41631 1.75536
rtibia 68.4446 0 0
rfoot 19.3586 8.2103 0
rtoes -13.1154 0 0
lowerback 5.22957 2.31417 -1.61087
upperback 1.51018 2.8457 0.169716
thorax -1.34127 1.42621 1.24357
lowerneck -6.28662 -3.52807 2.77981
upperneck 9.23374 -5.22176 1.96705
head 4.11585 -2.38463 -0.116527
lclavicle 3.04709e-14 -1.52654e-14 0
lhumerus -46.9106 -11.0126 82.6051
lradius 54.1478 0 0
lwrist 19.9612 0 0
lhand -0.216402 3.92862 0
lfingers 7.12502 0 0
lthumb 25.3933 32.3277 0
rclavicle 3.04709e-14 -1.52654e-14 0
rhumerus -41.8861 13.7708 -64.9907
rradius 51.8991 0 0
rwrist 6.15752 0 0
rhand -22.6656 -26.0048 0
rfingers 7.12502 0 0
rthumb 3.76207 -775.859 0
852
root 3.80538 16.431 28.2784 -10.8645 9.00011 357.948
lfemur -19.7101 2.49427 -16.0997
ltibia 35.0466 0 0
lfoot -3.32747 -20.6308 0
ltoes 11.9126 0 0
rfemur -34.9048 -2.85333 1.67599
rtibia 67.1124 0 0
rfoot 18.0701 6.955 0
rtoes -11.8445 0 0
lowerback 6.06071 1.92774 -1.89999
upperback 1.80139 2.30138 0.0518565
thorax -1.49172 1.15486 1.29729
lowerneck -6.28522 -3.51352 2.74306
upperneck 9.16636 -5.20757 2.07733
head 4.09731 -2.37494 -0.0724427
lclavicle 3.00312e-14 -1.58874e-14 0
lhumerus -45.7926 -11.9404 82.2906
lradius 54.2203 0 0
lwrist 20.3195 0 0
lhand 0.37179 3.879 0
lfingers 7.12502 0 0
lthumb 25.9582 32.2095 0
rclavicle 3.00312e-14 -1.58874e-14 0
rhumerus -42.7897 12.6275 -63.7455
rradius 51.6349 0 0
rwrist 5.90388 0 0
rhand -21.2142 -26.0984 0
rfingers 7.12502 0 0
rthumb 5.16293 -775.932 0
853
root 3.82414 16.4468 28.3719 -11.4583 10.0521 358.068
lfemur -18.7867 2.74806 -16.5116
ltibia 34.8759 0 0
lfoot -3.3805 -21.7551 0
ltoes 13.6592 0 0
rfemur -37.692 -2.30996 1.65464
rtibia 65.7841 0 0
rfoot 16.756 5.7123 0
rtoes -10.5901 0 0
lowerback 6.89121 1.54149 -2.18561
upperback 2.09243 1.75699 -0.0680289
thorax -1.64066 0.883502 1.34777
lowerneck -6.28475 -3.49692 2.70591
upperneck 9.08638 -5.19034 2.18946
head 4.0748 -2.36393 -0.0274685
lclavicle 2.94985e-14 -1.64788e-14 0
lhumerus -44.6741 -12.8894 81.9922
lradius 54.2977 0 0
lwrist 20.6731 0 0
lhand 0.978169 3.84014 0
lfingers 7.12502 0 0
lthumb 26.54 32.0951 0
rclavicle 2.94985e-14 -1.64788e-14 0
rhumerus -43.6831 11.4729 -62.5292
rradius 51.4094 0 0
rwrist 5.61145 0 0
rhand -19.7896 -26.2203 0
rfingers 7.12502 0 0
rthumb 6.53804 -776.031 0
854
root 3.84289 16.4625 28.4655 -12.0289 11.0929 358.184
lfemur -17.8885 3.01843 -16.9054
ltibia 34.7041 0 0
lfoot -3.44863 -22.8027 0
ltoes 15.3548 0 0
rfemur -40.4555 -1.80186 1.69585
rtibia 64.499 0 0
rfoot 15.4452 4.5099 0
rtoes -9.36696 0 0
lowerback 7.71225 1.1586 -2.4664
upperback 2.3802 1.21696 -0.188752
thorax -1.7866 0.614343 1.39551
lowerneck -6.28575 -3.47892 2.66853
upperneck 8.99586 -5.17093 2.30267
head 4.04906 -2.352 0.0180377
lclavicle 2.88719e-14 -1.70315e-14 0
lhumerus -43.567 -13.8538 81.7141
lradius 54.3808 0 0
lwrist 21.0169 0 0
lhand 1.60178 3.81426 0
lfingers 7.12502 0 0
lthumb 27.1377 31.9862 0
rclavicle 2.88719e-14 -1.70315e-14 0
rhumerus -44.5573 10.3063 -61.3458
rradius 51.2277 0 0
rwrist 5.27907 0 0
rhand -18.4228 -26.3766 0
rfingers 7.12502 0 0
rthumb 7.85734 -776.164 0
855
root 3.86165 16.4783 28.5591 -12.5709 12.1135 358.295
lfemur -17.0247 3.30676 -17.2801
ltibia 34.5393 0 0
lfoot -3.53254 -23.7594 0
ltoes 16.9683 0 0
rfemur -43.1744 -1.34468 1.80419
rtibia 63.2961 0 0
rfoot 14.1662 3.37554 0
rtoes -8.18972 0 0
lowerback 8.51504 0.782246 -2.74104
upperback 2.66164 0.685745 -0.309123
thorax -1.92808 0.349601 1.44098
lowerneck -6.28877 -3.46015 2.63107
upperneck 8.89684 -5.15018 2.41615
head 4.02081 -2.33957 0.0637177
lclavicle 2.81506e-14 -1.75372e-14 0
lhumerus -42.4831 -14.8279 81.4606
lradius 54.4705 0 0
lwrist 21.3459 0 0
lhand 2.24167 3.80362 0
lfingers 7.12502 0 0
lthumb 27.7503 31.8839 0
rclavicle 2.81506e-14 -1.75372e-14 0
rhumerus -45.4037 9.12703 -60.1992
rradius 51.0949 0 0
rwrist 4.90558 0 0
rhand -17.1449 -26.5735 0
rfingers 7.12502 0 0
rthumb 9.09081 -776.337 0
856
root 3.88041 16.494 28.6526 -13.0789 13.1048 358.402
lfemur -16.2047 3.61441 -17.6345
ltibia 34.3893 0 0
lfoot -3.63288 -24.6112 0
ltoes 18.4687 0 0
rfemur -45.8275 -0.954077 1.9842
rtibia 62.2146 0 0
rfoot 12.948 2.33693 0
rtoes -7.07307 0 0
lowerback 9.29075 0.415599 -3.0082
upperback 2.93367 0.167783 -0.427954
thorax -2.06362 0.0914929 1.48466
lowerneck -6.29434 -3.44125 2.59372
upperneck 8.79135 -5.12892 2.52913
head 3.99082 -2.32706 0.109213
lclavicle 2.7334e-14 -1.7988e-14 0
lhumerus -41.4342 -15.8061 81.2356
lradius 54.5679 0 0
lwrist 21.6552 0 0
lhand 2.89687 3.81045 0
lfingers 7.12502 0 0
lthumb 28.3766 31.7898 0
rclavicle 2.7334e-14 -1.7988e-14 0
rhumerus -46.2135 7.93446 -59.0936
rradius 51.0163 0 0
rwrist 4.48983 0 0
rhand -15.9872 -26.8169 0
rfingers 7.12502 0 0
rthumb 10.2084 -776.555 0
857
root 3.89916 16.5098 28.7462 -13.5473 14.0577 358.504
lfemur -15.4375 3.94274 -17.9678
ltibia 34.2622 0 0
lfoot -3.75033 -25.344 0
ltoes 19.825 0 0
rfemur -48.394 -0.645694 2.24043
rtibia 61.2938 0 0
rfoot 11.8191 1.42179 0
rtoes -6.03167 0 0
lowerback 10.0306 0.0618401 -3.26658
upperback 3.1932 -0.332479 -0.544057
thorax -2.19175 -0.157767 1.52704
lowerneck -6.30301 -3.42286 2.55663
upperneck 8.68144 -5.108 2.64082
head 3.95981 -2.31487 0.154166
lclavicle 2.64212e-14 -1.83756e-14 0
lhumerus -40.432 -16.7827 81.0434
lradius 54.6737 0 0
lwrist 21.9395 0 0
lhand 3.56643 3.83699 0
lfingers 7.12502 0 0
lthumb 29.0158 31.7053 0
rclavicle 2.64212e-14 -1.83756e-14 0
rhumerus -46.9779 6.7279 -58.0327
rradius 50.9971 0 0
rwrist 4.03065 0 0
rhand -14.9806 -27.1132 0
rfingers 7.12502 0 0
rthumb 11.1801 -776.826 0
858
root 3.91792 16.5255 28.8398 -13.9707 14.9634 358.6
lfemur -14.7325 4.29312 -18.2789
ltibia 34.166 0 0
lfoot -3.88554 -25.9435 0
ltoes 21.006 0 0
rfemur -50.8528 -0.435188 2.57743
rtibia 60.5727 0 0
rfoot 10.8083 0.657835 0
rtoes -5.0802 0 0
lowerback 10.7257 -0.275855 -3.51483
upperback 3.43716 -0.810596 -0.656243
thorax -2.31099 -0.395962 1.56859
lowerneck -6.31532 -3.40562 2.51997
upperneck 8.56916 -5.08827 2.75042
head 3.92852 -2.30342 0.198218
lclavicle 2.54115e-14 -1.8692e-14 0
lhumerus -39.4885 -17.7521 80.8882
lradius 54.7891 0 0
lwrist 22.1939 0 0
lhand 4.2494 3.88549 0
lfingers 7.12502 0 0
lthumb 29.6667 31.6318 0
rclavicle 2.54115e-14 -1.8692e-14 0
rhumerus -47.6881 5.50671 -57.0208
rradius 51.0423 0 0
rwrist 3.5269 0 0
rhand -14.1564 -27.4682 0
rfingers 7.12502 0 0
rthumb 11.9759 -777.155 0
859
root 3.93667 16.5413 28.9333 -14.3437 15.8126 358.691
lfemur -14.0988 4.66692 -18.5668
ltibia 34.1085 0 0
lfoot -4.03918 -26.3957 0
ltoes 21.9808 0 0
rfemur -53.1827 -0.338211 2.99976
rtibia 60.0906 0 0
rfoot 9.94427 0.0727911 0
rtoes -4.23334 0 0
lowerback 11.3673 -0.59431 -3.75165
upperback 3.66247 -1.26212 -0.763322
thorax -2.41987 -0.620877 1.6098
lowerneck -6.33182 -3.39018 2.4839
upperneck 8.45655 -5.07056 2.85715
head 3.8977 -2.29311 0.24101
lclavicle 2.4304e-14 -1.89291e-14 0
lhumerus -38.6154 -18.7085 80.7741
lradius 54.9148 0 0
lwrist 22.4134 0 0
lhand 4.94481 3.95817 0
lfingers 7.12502 0 0
lthumb 30.3283 31.5706 0
rclavicle 2.4304e-14 -1.89291e-14 0
rhumerus -48.3354 4.27021 -56.0616
rradius 51.1572 0 0
rwrist 2.97741 0 0
rhand -13.5456 -27.8883 0
rfingers 7.12502 0 0
rthumb 12.5657 -777.549 0
860
root 3.95543 16.557 29.0269 -14.6609 16.5964 358.776
lfemur -13.5458 5.06551 -18.8306
ltibia 34.0979 0 0
lfoot -4.21193 -26.6865 0
ltoes 22.7183 0 0
rfemur -55.3629 -0.370414 3.51197
rtibia 59.8865 0 0
rfoot 9.25579 -0.305626 0
rtoes -3.50576 0 0
lowerback 11.9467 -0.890347 -3.97571
upperback 3.86606 -1.68261 -0.864108
thorax -2.51692 -0.830297 1.65115
lowerneck -6.35304 -3.37716 2.4486
upperneck 8.34565 -5.05571 2.96022
head 3.86809 -2.28437 0.282186
lclavicle 2.30982e-14 -1.90788e-14 0
lhumerus -37.8244 -19.6463 80.7053
lradius 55.0519 0 0
lwrist 22.5929 0 0
lhand 5.65172 4.05728 0
lfingers 7.12502 0 0
lthumb 30.9996 31.5232 0
rclavicle 2.30982e-14 -1.90788e-14 0
rhumerus -48.9109 3.01775 -55.1593
rradius 51.347 0 0
rwrist 2.38102 0 0
rhand -13.1794 -28.3795 0
rfingers 7.12502 0 0
rthumb 12.9195 -778.015 0
861
root 3.97418 16.5728 29.1204 -14.9168 17.3056 358.856
lfemur -13.0827 5.49025 -19.0691
ltibia 34.142 0 0
lfoot -4.40444 -26.8017 0
ltoes 23.1875 0 0
rfemur -57.3723 -0.54745 4.1186
rtibia 59.9997 0 0
rfoot 8.77155 -0.449696 0
rtoes -2.91213 0 0
lowerback 12.4549 -1.16079 -4.18569
upperback 4.04484 -2.06762 -0.95741
thorax -2.60067 -1.02201 1.69312
lowerneck -6.37953 -3.36722 2.41423
upperneck 8.23851 -5.04458 3.05884
head 3.84042 -2.27761 0.321385
lclavicle 2.1793e-14 -1.91329e-14 0
lhumerus -37.1275 -20.5598 80.686
lradius 55.2012 0 0
lwrist 22.7273 0 0
lhand 6.36915 4.18506 0
lfingers 7.12502 0 0
lthumb 31.6796 31.491 0
rclavicle 2.1793e-14 -1.91329e-14 0
rhumerus -49.4058 1.74866 -54.3178
rradius 51.6168 0 0
rwrist 1.73658 0 0
rhand -13.0889 -28.9479 0
rfingers 7.12502 0 0
rthumb 13.0073 -778.559 0
